<mxfile host="app.diagrams.net" modified="2023-06-29T11:22:58.609Z" agent="Mozilla/5.0 (Macintosh; Intel Mac OS X 10_15_7) AppleWebKit/605.1.15 (KHTML, like Gecko) Version/16.1 Safari/605.1.15" version="21.5.2" etag="yV0cseHMX5BMbDwQTbBM" type="github">
  <diagram name="第 1 页" id="ILE_KX7Z8-EdUWNQfZIO">
    <mxGraphModel>
      <root>
        <mxCell id="0" />
        <mxCell id="1" parent="0" />
      </root>
    </mxGraphModel>
  </diagram>
</mxfile>
